<svg width="137" height="47" viewBox="0 0 137 47" fill="none" xmlns="http://www.w3.org/2000/svg">
<path d="M46.9377 36.101V16.8139H50.9V19.4525C51.2291 18.8813 51.6547 18.3712 52.1578 17.9448C53.4018 16.94 54.9609 16.406 56.5603 16.437C57.4691 16.3857 58.3788 16.521 59.2333 16.8343C60.0878 17.1476 60.8691 17.6325 61.5288 18.2589C62.0893 18.7448 62.5395 19.3445 62.8496 20.018V20.018C63.2087 19.3222 63.7256 18.7198 64.359 18.2589C65.7695 16.9946 67.6237 16.3396 69.5162 16.437C70.493 16.3937 71.4681 16.5559 72.3781 16.913C73.2882 17.2702 74.113 17.8143 74.7992 18.5102C76.2155 20.283 76.8915 22.5338 76.686 24.7926V36.101H73.1011V24.7298C73.1011 21.5886 71.7174 20.018 68.8873 20.018C68.2319 20.018 67.5841 20.1581 66.9874 20.429C66.3908 20.7 65.8591 21.0953 65.4282 21.5886C64.4687 22.6565 63.9515 24.049 63.9816 25.4837V36.101H59.9565V24.7298C59.9565 21.5886 58.5729 20.018 55.7427 20.018C55.0979 20.0268 54.4623 20.1713 53.8771 20.4419C53.292 20.7125 52.7704 21.1032 52.3465 21.5886C51.387 22.6565 50.8699 24.049 50.9 25.4837V36.101H46.9377Z" fill="#01403A"/>
<path d="M83.2269 33.5881C82.2716 32.6717 81.516 31.5681 81.0073 30.3466C80.4987 29.125 80.248 27.8117 80.2709 26.4889C80.2431 25.1561 80.4913 23.8319 81 22.5995C81.5086 21.367 82.2668 20.2528 83.2269 19.3269C84.145 18.3779 85.2514 17.6306 86.4751 17.133C87.6988 16.6354 89.013 16.3983 90.3337 16.437C91.6943 16.3785 93.052 16.6055 94.3194 17.1032C95.5868 17.601 96.7357 18.3585 97.6922 19.3269C98.644 20.256 99.3925 21.3721 99.8904 22.6049C100.388 23.8376 100.625 25.1602 100.585 26.4889C100.62 27.8076 100.381 29.1193 99.883 30.3411C99.3851 31.563 98.6391 32.6685 97.6922 33.5881C96.7575 34.5327 95.6394 35.2764 94.4064 35.7734C93.1734 36.2704 91.8516 36.5102 90.5224 36.478C89.1704 36.5434 87.82 36.3195 86.5618 35.821C85.3035 35.3226 84.1665 34.5613 83.2269 33.5881V33.5881ZM86.1199 21.5886C85.0014 22.8981 84.4175 24.5803 84.4847 26.3004C84.4273 28 85.0109 29.6592 86.1199 30.9494C87.2793 32.009 88.7938 32.5966 90.3652 32.5966C91.9366 32.5966 93.451 32.009 94.6104 30.9494C95.7195 29.6592 96.3031 28 96.2456 26.3004C96.3128 24.5803 95.729 22.8981 94.6104 21.5886C93.451 20.529 91.9366 19.9414 90.3652 19.9414C88.7938 19.9414 87.2793 20.529 86.1199 21.5886V21.5886Z" fill="#01403A"/>
<path d="M102.283 20.3949V16.8139H104.61V12.6047H108.573V16.8139H114.422V20.3949H108.573V32.52H114.862V36.101H104.61V20.3949H102.283Z" fill="#01403A"/>
<path d="M118.384 13.2958C118.156 13.0768 117.977 12.8128 117.858 12.5207C117.739 12.2286 117.682 11.9148 117.692 11.5995C117.682 11.2842 117.739 10.9704 117.858 10.6783C117.977 10.3862 118.156 10.1222 118.384 9.90324C118.579 9.64949 118.825 9.43989 119.107 9.28828C119.389 9.13667 119.7 9.04649 120.019 9.0237C120.334 9.018 120.647 9.07632 120.939 9.19511C121.231 9.31391 121.496 9.4907 121.717 9.71476C122.153 10.1731 122.4 10.7788 122.409 11.411C122.4 12.0432 122.153 12.6489 121.717 13.1073C121.493 13.3231 121.226 13.4903 120.934 13.5984C120.641 13.7065 120.33 13.7532 120.019 13.7355C119.731 13.7737 119.438 13.7545 119.157 13.679C118.877 13.6035 118.614 13.4733 118.384 13.2958ZM118.069 36.101V16.8139H122.032V36.101H118.069Z" fill="#01403A"/>
<path d="M125.05 20.3949V16.8139H127.377V9.58911H137V13.1701H131.34V16.8139H135.868V20.3949H131.34V36.101H127.377V20.3949H125.05Z" fill="#01403A"/>
<path d="M16.3634 20.6523L10.7207 15.0097L15.0096 10.7208L26.2949 22.0061L27.6548 20.6462L15.0111 8.00252L8.00244 15.0112L15.0035 22.0122L16.3634 20.6523Z" fill="#403D17"/>
<path d="M29.6386 25.3499L35.2812 30.9925L30.9923 35.2814L19.7593 24.0484L18.3994 25.4083L30.9909 37.9997L37.9995 30.9911L30.9985 23.99L29.6386 25.3499Z" fill="#F29727"/>
<path d="M20.5928 29.6936L14.9963 35.29L10.7121 31.0058L21.905 19.8129L20.5466 18.4545L7.99377 31.0073L14.9948 38.0083L21.9512 31.052L20.5928 29.6936Z" fill="#03403A"/>
<path d="M24.1031 14.8979L25.4615 16.2563L31.0057 10.7121L35.2899 14.9964L24.097 26.1893L25.4554 27.5477L38.0082 14.9949L31.0071 7.99383L24.1031 14.8979Z" fill="#DF2626"/>
</svg>
