<svg id="svg" version="1.1" xmlns="http://www.w3.org/2000/svg" xmlns:xlink="http://www.w3.org/1999/xlink" width="400" height="191.08695652173913" viewBox="0, 0, 400,191.08695652173913"><g id="svgg"><path id="path0" d="M146.562 0.185 C 144.748 0.368,142.268 0.909,141.548 1.279 L 141.003 1.559 142.886 2.406 C 152.164 6.582,159.926 16.453,164.249 29.575 C 164.430 30.127,164.646 30.578,164.728 30.578 C 164.982 30.578,166.657 27.586,167.053 26.426 C 167.259 25.819,167.510 25.151,167.610 24.940 C 168.535 22.987,168.549 14.876,167.629 13.677 C 167.544 13.565,167.336 13.043,167.169 12.518 C 166.701 11.051,166.320 10.218,165.993 9.947 C 165.829 9.811,165.695 9.598,165.695 9.474 C 165.695 8.731,162.469 5.186,160.490 3.755 C 160.042 3.431,159.632 3.113,159.580 3.050 C 158.124 1.282,151.071 -0.270,146.562 0.185 M248.925 0.190 C 246.039 0.472,240.612 2.361,240.612 3.083 C 240.612 3.164,240.318 3.370,239.959 3.541 C 237.634 4.644,233.478 10.210,232.757 13.187 C 232.616 13.765,232.438 14.284,232.360 14.340 C 231.029 15.298,232.206 26.303,233.833 28.100 C 233.987 28.271,234.114 28.466,234.114 28.535 C 234.114 28.720,235.473 30.811,235.546 30.737 C 235.606 30.675,235.725 30.353,236.976 26.866 L 237.588 25.160 237.208 24.381 C 234.636 19.116,237.396 10.596,242.809 7.092 C 243.230 6.820,243.620 6.535,243.676 6.460 C 243.849 6.226,245.910 5.370,246.869 5.132 C 247.369 5.008,247.837 4.818,247.908 4.710 C 247.984 4.595,249.173 4.489,250.775 4.455 L 253.512 4.398 254.849 3.646 C 255.585 3.232,256.811 2.618,257.573 2.281 C 259.275 1.529,259.281 1.449,257.668 0.975 C 255.105 0.223,251.710 -0.082,248.925 0.190 M98.858 49.881 C 98.858 50.354,98.895 50.547,98.940 50.311 C 98.986 50.074,98.986 49.687,98.940 49.451 C 98.895 49.214,98.858 49.408,98.858 49.881 M98.682 52.652 C 98.682 53.598,98.714 54.009,98.754 53.565 C 98.794 53.122,98.795 52.348,98.755 51.845 C 98.716 51.343,98.683 51.706,98.682 52.652 M301.440 55.136 C 301.442 55.662,301.479 55.854,301.523 55.564 C 301.567 55.273,301.565 54.843,301.520 54.608 C 301.475 54.373,301.439 54.611,301.440 55.136 M234.682 78.404 C 234.334 79.061,233.978 79.647,233.891 79.706 C 233.671 79.853,232.585 82.868,232.585 83.331 C 232.585 83.538,232.509 83.708,232.417 83.708 C 231.603 83.708,231.676 92.403,232.504 93.989 C 232.652 94.273,232.774 94.612,232.775 94.742 C 232.776 95.033,233.754 97.526,233.919 97.659 C 233.984 97.711,234.302 98.227,234.625 98.806 C 235.842 100.982,238.977 104.030,241.273 105.270 C 241.794 105.551,242.330 105.881,242.464 106.003 C 244.240 107.623,253.611 108.579,256.187 107.404 C 256.398 107.308,257.043 107.096,257.621 106.932 C 259.278 106.464,259.386 106.323,258.385 105.936 C 249.128 102.348,241.271 92.882,236.405 79.455 C 235.454 76.834,235.498 76.861,234.682 78.404 M164.353 77.891 C 164.250 78.161,164.166 78.436,164.166 78.503 C 164.166 78.732,162.773 82.274,162.612 82.453 C 162.523 82.553,162.564 82.765,162.705 82.931 C 164.611 85.175,163.620 95.296,161.339 96.882 C 161.254 96.941,160.932 97.334,160.624 97.754 C 159.924 98.709,158.944 99.692,157.953 100.433 C 157.534 100.747,157.024 101.154,156.820 101.338 C 156.616 101.522,156.382 101.672,156.299 101.672 C 156.216 101.672,155.521 101.966,154.754 102.325 C 152.952 103.169,151.411 103.449,148.638 103.438 C 147.403 103.433,146.393 103.493,146.393 103.571 C 146.393 103.721,142.970 105.483,141.744 105.964 C 140.796 106.336,140.937 106.509,142.515 106.910 C 143.229 107.091,143.962 107.320,144.145 107.418 C 145.450 108.122,152.176 108.127,153.751 107.426 C 153.961 107.332,154.899 107.012,155.835 106.714 C 156.772 106.415,157.647 106.062,157.780 105.929 C 157.914 105.795,158.071 105.686,158.130 105.686 C 158.364 105.686,160.304 104.416,161.183 103.688 C 162.014 103.001,162.544 102.483,164.230 100.715 C 164.991 99.917,166.630 97.032,167.062 95.729 C 167.286 95.056,167.533 94.419,167.612 94.314 C 168.490 93.147,168.494 84.247,167.617 83.039 C 167.541 82.934,167.282 82.246,167.043 81.510 C 166.803 80.774,166.402 79.898,166.151 79.564 C 165.900 79.229,165.695 78.905,165.695 78.844 C 165.695 78.635,164.835 77.406,164.687 77.403 C 164.606 77.402,164.455 77.621,164.353 77.891 M226.756 144.288 C 224.681 144.446,221.525 144.990,221.215 145.241 C 221.109 145.328,220.592 145.526,220.067 145.683 C 218.358 146.191,215.018 147.909,214.135 148.734 C 213.826 149.023,213.510 149.259,213.434 149.259 C 213.036 149.259,210.472 151.857,209.382 153.364 C 209.076 153.787,208.749 154.184,208.655 154.246 C 208.561 154.308,208.248 154.824,207.959 155.393 C 207.670 155.961,207.251 156.719,207.027 157.076 C 206.803 157.433,206.393 158.465,206.115 159.369 C 205.837 160.273,205.535 161.185,205.444 161.395 C 203.932 164.888,204.838 174.669,207.028 178.482 C 207.245 178.860,207.621 179.536,207.864 179.984 C 208.867 181.835,211.492 184.887,212.923 185.866 C 213.376 186.177,213.896 186.577,214.078 186.755 C 214.260 186.934,214.675 187.217,215.001 187.386 C 215.327 187.554,215.754 187.830,215.950 187.998 C 216.146 188.166,216.895 188.549,217.614 188.849 C 218.332 189.149,219.135 189.514,219.398 189.660 C 222.999 191.660,237.737 191.530,239.787 189.480 C 239.940 189.327,240.177 189.202,240.314 189.202 C 240.707 189.202,243.287 188.016,243.287 187.836 C 243.287 187.746,243.395 187.672,243.526 187.670 C 243.793 187.666,245.051 186.845,245.949 186.090 L 246.536 185.596 246.536 176.410 L 246.536 167.224 243.287 167.224 L 240.038 167.224 240.038 174.732 L 240.038 182.241 238.777 182.966 C 237.531 183.683,234.830 184.615,234.000 184.615 C 233.765 184.615,233.536 184.723,233.493 184.854 C 233.432 185.035,232.485 185.093,229.623 185.093 C 226.760 185.093,225.813 185.035,225.753 184.854 C 225.709 184.723,225.483 184.615,225.251 184.615 C 224.682 184.615,221.290 183.506,220.929 183.202 C 220.770 183.068,220.124 182.680,219.494 182.339 C 218.059 181.563,214.938 178.417,214.157 176.961 C 213.850 176.388,213.528 175.872,213.442 175.814 C 213.235 175.674,212.397 173.258,212.220 172.289 C 212.143 171.868,211.985 171.463,211.869 171.388 C 211.573 171.197,211.578 164.515,211.875 164.148 C 211.994 164.000,212.156 163.579,212.234 163.211 C 212.664 161.187,213.923 158.497,215.090 157.109 C 215.900 156.147,218.043 154.037,218.212 154.037 C 218.308 154.037,218.602 153.838,218.865 153.594 C 219.423 153.076,220.904 152.281,221.930 151.947 C 222.324 151.819,222.647 151.646,222.647 151.563 C 222.647 151.147,226.793 150.515,229.527 150.515 C 232.908 150.515,234.892 150.888,237.142 151.948 C 238.020 152.361,238.799 152.699,238.874 152.699 C 238.949 152.699,239.177 152.850,239.381 153.034 C 239.585 153.218,240.096 153.594,240.516 153.869 C 240.936 154.145,241.581 154.638,241.949 154.965 C 242.317 155.292,242.706 155.561,242.813 155.563 C 243.122 155.568,247.135 151.531,247.071 151.279 C 246.994 150.973,244.114 148.407,243.383 147.993 C 243.172 147.874,242.613 147.551,242.140 147.276 C 238.103 144.925,232.544 143.846,226.756 144.288 M274.277 145.511 C 274.070 145.977,273.840 146.560,273.765 146.806 C 273.690 147.052,273.523 147.382,273.394 147.539 C 273.265 147.697,272.925 148.428,272.638 149.164 C 272.351 149.900,272.008 150.674,271.874 150.884 C 271.741 151.094,271.394 151.868,271.103 152.604 C 270.813 153.340,270.466 154.071,270.334 154.228 C 270.201 154.386,269.917 154.991,269.704 155.572 C 269.490 156.154,269.055 157.143,268.737 157.770 C 268.419 158.397,267.970 159.427,267.739 160.057 C 267.507 160.688,267.210 161.333,267.079 161.491 C 266.947 161.648,266.774 161.992,266.695 162.255 C 266.615 162.518,266.314 163.223,266.025 163.821 C 265.736 164.420,265.547 164.958,265.605 165.016 C 265.663 165.074,265.617 165.122,265.501 165.122 C 265.385 165.122,265.233 165.315,265.161 165.552 C 264.986 166.134,264.600 167.029,263.741 168.849 C 263.345 169.689,262.906 170.678,262.768 171.046 C 262.629 171.414,262.459 171.758,262.390 171.811 C 262.321 171.863,262.026 172.508,261.735 173.244 C 261.443 173.980,260.828 175.373,260.368 176.339 C 259.908 177.305,259.532 178.230,259.532 178.393 C 259.532 178.557,259.452 178.691,259.354 178.691 C 259.257 178.691,258.992 179.184,258.767 179.788 C 258.541 180.391,257.976 181.688,257.511 182.670 C 257.046 183.652,256.665 184.513,256.665 184.583 C 256.665 184.653,256.415 185.227,256.108 185.858 C 254.870 188.407,253.989 190.352,253.989 190.536 C 253.989 190.662,255.267 190.731,257.585 190.731 L 261.180 190.731 261.694 189.416 C 261.976 188.693,262.207 188.005,262.207 187.888 C 262.207 187.770,262.282 187.673,262.374 187.673 C 262.466 187.673,262.822 186.964,263.165 186.097 C 263.508 185.229,264.068 183.918,264.409 183.182 C 264.750 182.446,265.143 181.522,265.281 181.128 C 265.420 180.733,265.592 180.411,265.665 180.411 C 265.738 180.411,265.851 180.196,265.917 179.933 L 266.037 179.455 278.066 179.455 L 290.095 179.455 290.299 180.211 C 290.411 180.627,290.610 181.078,290.742 181.215 C 290.874 181.351,291.268 182.193,291.617 183.086 C 291.967 183.980,292.321 184.797,292.406 184.902 C 292.490 185.007,292.883 185.910,293.280 186.909 C 293.676 187.907,294.054 188.767,294.119 188.820 C 294.185 188.872,294.392 189.324,294.579 189.823 L 294.919 190.731 298.630 190.731 C 302.265 190.731,302.619 190.669,302.101 190.124 C 301.970 189.985,301.566 189.140,301.205 188.247 C 300.843 187.353,300.495 186.579,300.431 186.527 C 300.367 186.474,300.119 185.958,299.880 185.380 C 299.642 184.802,299.242 183.899,298.993 183.373 C 298.449 182.226,296.630 178.174,296.119 176.971 C 295.919 176.498,295.645 175.997,295.512 175.858 C 295.379 175.719,295.270 175.486,295.270 175.340 C 295.270 175.193,294.808 174.098,294.243 172.905 C 293.678 171.712,293.152 170.526,293.074 170.270 C 292.997 170.014,292.774 169.503,292.581 169.135 C 291.956 167.949,290.473 164.675,290.070 163.593 C 289.855 163.015,289.563 162.409,289.421 162.246 C 289.280 162.083,289.041 161.599,288.890 161.171 C 288.739 160.743,288.267 159.663,287.841 158.771 C 287.415 157.878,286.885 156.663,286.663 156.071 C 286.442 155.478,286.180 154.993,286.083 154.993 C 285.985 154.993,285.905 154.862,285.905 154.702 C 285.905 154.444,284.396 151.011,283.134 148.399 C 282.879 147.874,282.416 146.842,282.104 146.106 L 281.535 144.768 278.093 144.716 L 274.651 144.664 274.277 145.511 M310.750 167.712 L 310.750 190.752 323.029 190.689 C 335.619 190.625,338.656 190.420,339.226 189.597 C 339.279 189.521,340.061 189.231,340.964 188.951 C 341.867 188.672,342.814 188.282,343.066 188.084 C 343.319 187.887,343.956 187.507,344.482 187.242 C 345.007 186.976,345.601 186.578,345.801 186.356 C 346.001 186.134,346.288 185.953,346.437 185.953 C 346.808 185.953,350.693 182.029,350.693 181.655 C 350.693 181.490,350.813 181.308,350.960 181.252 C 351.106 181.196,351.508 180.618,351.852 179.968 C 352.195 179.318,352.528 178.743,352.592 178.691 C 352.766 178.546,353.162 177.597,353.584 176.310 C 353.792 175.675,354.043 175.007,354.141 174.827 C 355.277 172.740,355.276 163.389,354.139 160.822 C 354.046 160.612,353.741 159.729,353.461 158.860 C 353.181 157.991,352.851 157.174,352.726 157.044 C 352.601 156.915,352.204 156.228,351.844 155.518 C 351.483 154.809,351.124 154.228,351.045 154.228 C 350.967 154.228,350.648 153.863,350.336 153.416 C 349.830 152.690,349.210 152.042,347.365 150.311 C 346.692 149.679,344.729 148.393,344.529 148.452 C 344.451 148.476,344.386 148.417,344.386 148.322 C 344.386 147.964,340.635 146.361,338.669 145.879 C 337.556 145.606,336.499 145.310,336.319 145.221 C 335.485 144.812,331.848 144.676,321.691 144.674 L 310.750 144.673 310.750 167.712 M366.746 144.720 C 366.745 144.747,366.724 155.110,366.698 167.750 L 366.651 190.731 383.325 190.731 L 400.000 190.731 400.000 187.769 L 400.000 184.806 386.813 184.806 L 373.626 184.806 373.626 177.544 L 373.626 170.282 385.093 170.282 L 396.560 170.282 396.560 167.415 L 396.560 164.548 385.093 164.548 L 373.626 164.548 373.626 157.668 L 373.626 150.788 386.527 150.788 L 399.427 150.788 399.427 147.731 L 399.427 144.673 383.086 144.673 C 374.099 144.673,366.746 144.694,366.746 144.720 M334.639 151.165 C 335.217 151.292,335.776 151.463,335.882 151.544 C 335.987 151.626,336.546 151.839,337.124 152.017 C 338.388 152.406,340.062 153.124,340.148 153.315 C 340.182 153.390,340.655 153.711,341.199 154.028 C 344.220 155.789,347.635 161.090,347.635 164.019 C 347.635 164.188,347.739 164.360,347.866 164.402 C 348.200 164.514,348.208 170.741,347.874 171.075 C 347.742 171.206,347.635 171.494,347.635 171.713 C 347.635 172.273,346.506 175.824,346.329 175.824 C 346.248 175.824,346.001 176.197,345.779 176.654 C 345.014 178.230,342.049 181.366,341.325 181.366 C 341.222 181.366,341.137 181.442,341.137 181.534 C 341.137 181.810,337.313 183.600,335.977 183.949 C 333.728 184.536,330.830 184.742,324.176 184.785 L 317.630 184.827 317.630 167.792 L 317.630 150.756 325.609 150.846 C 330.789 150.904,333.957 151.016,334.639 151.165 M278.249 152.699 C 278.333 152.699,278.640 153.366,278.932 154.181 C 279.224 154.995,279.568 155.791,279.695 155.948 C 279.823 156.106,280.170 156.880,280.467 157.668 C 280.763 158.457,281.157 159.360,281.342 159.675 C 281.527 159.990,281.947 160.977,282.274 161.869 C 282.602 162.760,282.942 163.534,283.030 163.589 C 283.118 163.644,283.470 164.419,283.812 165.313 C 284.154 166.206,284.491 166.980,284.561 167.033 C 284.630 167.086,284.888 167.645,285.134 168.275 C 285.380 168.906,285.739 169.723,285.932 170.091 C 286.329 170.847,287.433 173.551,287.434 173.770 C 287.434 173.849,283.177 173.913,277.974 173.913 C 269.940 173.913,268.514 173.872,268.514 173.642 C 268.514 173.493,268.592 173.343,268.687 173.308 C 268.782 173.273,269.178 172.427,269.567 171.429 C 269.956 170.430,270.332 169.570,270.403 169.517 C 270.475 169.465,270.779 168.777,271.078 167.989 C 271.378 167.200,271.772 166.297,271.954 165.982 C 272.137 165.667,272.526 164.763,272.820 163.975 C 273.113 163.187,273.428 162.493,273.518 162.432 C 273.663 162.336,273.992 161.553,274.675 159.675 C 274.790 159.360,274.940 159.059,275.010 159.006 C 275.079 158.954,275.465 158.094,275.866 157.095 C 276.267 156.097,276.702 155.108,276.832 154.897 C 276.962 154.687,277.272 153.973,277.521 153.311 C 277.770 152.649,278.002 152.241,278.036 152.403 C 278.070 152.566,278.166 152.699,278.249 152.699 " stroke="none" fill="#04acec" fill-rule="evenodd"></path><path id="path1" d="M133.672 7.119 L 133.110 7.740 133.731 7.179 C 134.073 6.870,134.353 6.591,134.353 6.558 C 134.353 6.410,134.195 6.540,133.672 7.119 M267.162 8.090 C 267.649 8.626,267.753 8.692,267.744 8.457 C 267.740 8.378,267.504 8.148,267.218 7.947 L 266.699 7.580 267.162 8.090 M268.495 9.440 C 268.815 9.780,268.860 9.923,268.671 9.998 C 268.504 10.065,268.531 10.104,268.753 10.114 C 268.937 10.122,269.087 10.220,269.087 10.331 C 269.087 10.443,269.173 10.481,269.279 10.416 C 269.384 10.351,269.470 10.367,269.470 10.452 C 269.471 10.940,264.403 10.493,263.593 9.933 C 262.435 9.134,262.589 9.521,263.880 10.654 C 266.333 12.807,277.434 24.194,278.261 25.406 C 278.419 25.638,278.893 26.186,279.315 26.626 C 280.348 27.702,281.234 28.867,281.175 29.072 C 281.149 29.165,281.201 29.219,281.290 29.193 C 281.379 29.166,281.982 29.790,282.628 30.578 C 283.275 31.366,284.011 32.226,284.265 32.489 C 284.518 32.752,284.927 33.268,285.175 33.636 C 285.422 34.004,285.769 34.477,285.947 34.687 C 286.265 35.063,288.161 37.579,288.826 38.504 C 289.013 38.765,289.157 39.031,289.147 39.096 C 289.137 39.160,289.248 39.313,289.393 39.435 C 289.756 39.739,291.830 42.900,291.830 43.149 C 291.830 43.260,292.007 43.551,292.224 43.796 C 292.624 44.249,293.671 46.137,294.247 47.444 C 294.421 47.838,294.642 48.161,294.737 48.161 C 294.832 48.161,294.867 48.090,294.813 48.004 C 294.658 47.752,294.463 46.799,294.367 45.819 C 294.318 45.320,294.212 44.912,294.131 44.912 C 294.051 44.912,293.925 44.331,293.853 43.622 C 293.659 41.735,292.597 36.622,292.369 36.481 C 292.261 36.415,292.159 35.978,292.141 35.510 C 292.101 34.420,290.776 32.554,286.957 28.208 C 286.116 27.251,284.119 25.136,282.519 23.507 C 280.920 21.878,277.455 18.352,274.819 15.671 C 272.184 12.991,269.645 10.389,269.178 9.890 C 268.711 9.391,268.270 8.982,268.197 8.982 C 268.125 8.982,268.259 9.188,268.495 9.440 M129.170 11.695 C 127.844 13.041,126.779 14.142,126.805 14.142 C 126.830 14.142,124.230 16.787,121.027 20.019 C 117.823 23.251,114.523 26.599,113.693 27.459 C 112.863 28.318,112.183 28.968,112.183 28.903 C 112.183 28.837,111.990 29.044,111.753 29.361 C 111.517 29.679,110.560 30.688,109.627 31.604 C 108.695 32.520,107.992 33.331,108.066 33.405 C 108.141 33.479,108.323 33.373,108.472 33.169 C 108.621 32.965,108.743 32.876,108.743 32.972 C 108.743 33.328,107.496 38.131,107.380 38.223 C 107.187 38.375,106.790 40.513,106.901 40.802 C 106.957 40.946,106.916 41.093,106.811 41.128 C 106.706 41.163,106.600 41.332,106.575 41.504 C 106.549 41.675,106.415 41.953,106.275 42.121 C 106.061 42.379,106.067 42.427,106.308 42.427 C 106.466 42.427,106.706 42.148,106.842 41.806 C 107.282 40.699,109.152 38.378,111.813 35.636 C 113.245 34.161,114.881 32.452,115.450 31.838 C 117.571 29.548,125.370 21.700,125.370 21.856 C 125.370 21.945,125.141 22.460,124.862 23.001 C 124.136 24.404,124.032 24.630,124.035 24.794 C 124.037 24.875,124.102 24.845,124.179 24.728 C 124.256 24.611,124.591 24.377,124.922 24.207 C 125.254 24.037,125.641 23.786,125.782 23.649 C 126.085 23.357,128.102 22.444,128.858 22.257 C 129.147 22.186,129.384 22.064,129.384 21.985 C 129.384 21.758,131.900 21.405,133.514 21.405 C 135.125 21.405,137.410 21.738,137.410 21.974 C 137.410 22.055,137.679 22.175,138.008 22.241 C 138.800 22.399,140.859 23.323,141.284 23.711 C 141.469 23.880,141.856 24.135,142.144 24.278 C 143.357 24.878,147.241 28.872,147.865 30.160 C 148.016 30.471,148.293 30.891,148.481 31.092 C 148.668 31.293,149.105 32.055,149.452 32.786 C 149.798 33.516,150.133 34.157,150.196 34.209 C 150.368 34.353,150.972 35.702,151.304 36.685 C 151.466 37.163,151.657 37.597,151.729 37.649 C 151.898 37.773,152.642 40.370,152.810 41.424 C 152.955 42.337,152.940 42.324,153.486 41.997 C 154.217 41.559,160.615 35.114,160.005 35.429 C 159.041 35.928,158.927 35.844,158.545 34.353 C 158.350 33.591,158.120 32.922,158.034 32.866 C 157.948 32.810,157.624 32.016,157.312 31.101 C 157.001 30.186,156.610 29.301,156.443 29.134 C 156.276 28.967,156.140 28.718,156.140 28.581 C 156.140 28.234,155.156 26.101,154.960 26.023 C 154.872 25.988,154.494 25.321,154.119 24.542 C 153.744 23.762,153.375 23.125,153.300 23.125 C 153.224 23.125,152.907 22.687,152.596 22.152 C 152.285 21.617,151.880 21.098,151.696 20.998 C 151.512 20.899,151.362 20.691,151.362 20.537 C 151.362 20.124,146.434 15.240,145.485 14.714 C 145.038 14.466,144.673 14.192,144.673 14.105 C 144.673 14.019,144.092 13.669,143.383 13.328 C 142.673 12.988,142.050 12.657,141.997 12.594 C 141.674 12.206,138.343 11.097,137.474 11.089 C 137.246 11.086,137.024 10.977,136.980 10.846 C 136.921 10.668,136.121 10.607,133.849 10.607 C 131.567 10.607,130.848 10.552,130.998 10.388 C 131.109 10.268,131.277 10.216,131.372 10.274 C 131.467 10.332,131.478 10.271,131.395 10.137 C 131.310 9.999,131.349 9.832,131.485 9.748 C 131.616 9.666,131.692 9.521,131.653 9.424 C 131.613 9.327,130.496 10.349,129.170 11.695 M241.544 30.824 C 241.872 31.221,242.140 31.678,242.140 31.838 C 242.140 31.998,242.226 32.076,242.332 32.011 C 242.437 31.947,242.523 31.947,242.523 32.012 C 242.523 32.271,241.875 34.120,241.753 34.209 C 241.681 34.262,241.541 34.649,241.441 35.069 C 241.295 35.682,241.176 35.831,240.840 35.819 C 240.290 35.799,240.351 35.871,243.669 39.141 C 246.462 41.892,247.237 42.551,247.237 42.171 C 247.237 41.619,247.945 38.987,248.094 38.987 C 248.183 38.987,248.256 38.865,248.256 38.716 C 248.256 38.567,248.364 38.402,248.495 38.349 C 248.679 38.275,248.676 38.249,248.484 38.238 C 248.346 38.229,248.284 38.142,248.345 38.043 C 248.445 37.880,247.327 36.665,242.525 31.725 C 241.657 30.831,241.215 30.426,241.544 30.824 M106.832 34.305 C 106.697 34.468,106.630 34.644,106.682 34.696 C 106.735 34.749,106.888 34.659,107.023 34.496 C 107.158 34.333,107.226 34.157,107.173 34.104 C 107.121 34.052,106.967 34.142,106.832 34.305 M292.212 35.461 C 292.212 35.519,292.525 35.884,292.908 36.273 L 293.604 36.980 293.147 36.170 C 292.766 35.493,292.212 35.074,292.212 35.461 M105.917 43.083 C 105.597 43.786,105.627 43.933,105.987 43.420 C 106.152 43.184,106.256 42.897,106.218 42.783 C 106.180 42.668,106.045 42.804,105.917 43.083 M104.454 47.253 C 104.256 47.906,104.208 48.343,104.344 48.259 C 104.427 48.207,104.533 47.906,104.579 47.590 C 104.664 47.010,104.589 46.808,104.454 47.253 M295.163 49.785 C 295.237 50.100,295.383 50.444,295.488 50.549 C 295.616 50.677,295.635 50.549,295.545 50.167 C 295.472 49.852,295.326 49.508,295.221 49.403 C 295.093 49.275,295.074 49.403,295.163 49.785 M103.836 52.556 C 103.836 53.239,103.870 53.519,103.913 53.177 C 103.955 52.836,103.955 52.277,103.913 51.935 C 103.870 51.593,103.836 51.873,103.836 52.556 M105.497 60.248 C 105.496 60.538,105.581 60.774,105.686 60.774 C 105.791 60.774,105.863 60.839,105.846 60.917 C 105.830 60.996,105.865 61.190,105.924 61.347 C 105.984 61.505,106.172 62.744,106.344 64.102 C 106.693 66.867,107.206 69.612,107.401 69.756 C 107.577 69.887,108.133 72.241,107.963 72.136 C 107.527 71.866,107.724 72.715,108.281 73.508 C 109.639 75.439,110.299 76.330,110.803 76.915 C 111.089 77.248,111.667 77.938,112.088 78.449 C 113.673 80.377,114.094 80.816,126.131 93.072 C 128.969 95.963,131.215 98.113,131.121 97.850 C 131.026 97.587,130.834 97.401,130.692 97.436 C 130.551 97.471,130.499 97.435,130.578 97.357 C 130.874 97.060,135.516 97.243,136.017 97.572 C 137.086 98.273,136.518 97.571,134.056 95.152 C 128.182 89.380,123.841 84.826,123.841 84.435 C 123.841 84.350,123.762 84.281,123.665 84.281 C 123.416 84.281,122.337 83.173,122.463 83.047 C 122.520 82.990,122.453 82.943,122.312 82.943 C 122.172 82.943,122.106 82.895,122.164 82.837 C 122.223 82.778,121.958 82.424,121.575 82.049 C 121.192 81.675,120.899 81.298,120.923 81.212 C 120.947 81.126,120.818 81.004,120.636 80.942 C 120.455 80.880,120.005 80.441,119.637 79.967 C 119.269 79.494,118.637 78.744,118.232 78.301 C 117.828 77.859,117.146 77.023,116.717 76.445 C 116.288 75.867,115.882 75.351,115.815 75.299 C 115.638 75.161,114.327 73.433,111.656 69.819 C 110.173 67.813,108.361 65.088,108.361 64.864 C 108.361 64.789,108.142 64.441,107.875 64.090 C 107.607 63.739,107.082 62.828,106.708 62.065 C 106.334 61.302,105.909 60.463,105.764 60.201 L 105.500 59.723 105.497 60.248 M293.293 66.205 C 292.393 67.843,290.913 69.700,288.733 71.927 C 287.792 72.888,286.804 73.953,286.538 74.293 C 286.272 74.634,285.978 74.865,285.884 74.808 C 285.791 74.750,285.714 74.788,285.714 74.893 C 285.714 75.261,276.827 84.312,276.644 84.130 C 276.587 84.073,276.541 84.125,276.541 84.246 C 276.541 84.367,276.104 84.919,275.570 85.473 C 275.037 86.026,274.693 86.291,274.806 86.062 C 275.177 85.309,275.456 84.570,275.425 84.424 C 275.408 84.345,275.480 84.281,275.585 84.281 C 275.690 84.281,275.766 84.216,275.754 84.138 C 275.689 83.726,275.801 83.508,276.015 83.629 C 276.186 83.725,276.182 83.687,276.002 83.497 C 275.787 83.269,275.718 83.274,275.525 83.533 C 275.400 83.699,274.698 84.122,273.964 84.472 C 273.230 84.822,272.529 85.208,272.407 85.330 C 271.179 86.557,262.454 86.573,261.195 85.350 C 261.068 85.227,260.464 84.915,259.852 84.656 C 259.240 84.397,258.552 83.993,258.323 83.759 C 258.094 83.524,257.798 83.330,257.664 83.329 C 257.319 83.324,253.225 79.189,253.225 78.845 C 253.225 78.689,253.071 78.478,252.882 78.377 C 252.693 78.276,252.288 77.714,251.982 77.128 C 251.675 76.543,251.368 76.063,251.299 76.063 C 251.230 76.063,250.900 75.451,250.565 74.702 C 250.231 73.953,249.844 73.228,249.705 73.089 C 249.567 72.951,249.165 71.951,248.813 70.867 C 248.460 69.783,248.109 68.869,248.031 68.835 C 247.953 68.802,247.736 68.092,247.549 67.259 C 247.222 65.804,246.868 65.344,246.605 66.030 C 246.545 66.187,246.394 66.316,246.271 66.316 C 246.148 66.316,245.909 66.467,245.740 66.651 C 245.570 66.835,244.178 68.228,242.646 69.747 C 241.114 71.266,239.905 72.553,239.960 72.608 C 240.014 72.663,240.119 72.615,240.192 72.503 C 240.265 72.390,240.520 72.195,240.758 72.070 C 241.229 71.822,241.230 71.822,241.471 72.908 C 241.540 73.222,241.656 73.523,241.727 73.577 C 241.798 73.630,242.154 74.577,242.517 75.681 C 242.881 76.785,243.239 77.714,243.313 77.746 C 243.387 77.778,243.762 78.617,244.146 79.609 C 244.531 80.602,244.910 81.414,244.989 81.414 C 245.068 81.414,245.423 81.995,245.778 82.704 C 246.133 83.414,246.537 84.111,246.677 84.253 C 246.817 84.395,247.099 84.842,247.305 85.246 C 247.511 85.650,247.797 86.050,247.940 86.134 C 248.083 86.219,248.449 86.666,248.754 87.128 C 249.058 87.591,249.393 88.091,249.498 88.239 C 250.254 89.306,254.133 92.881,254.536 92.881 C 254.648 92.881,254.821 93.032,254.920 93.216 C 255.018 93.400,255.559 93.798,256.121 94.100 C 256.683 94.402,257.186 94.707,257.238 94.776 C 257.397 94.986,259.632 95.930,260.272 96.058 C 260.601 96.124,260.870 96.239,260.870 96.315 C 260.870 96.765,264.743 97.325,267.290 97.243 C 269.373 97.176,269.676 97.407,268.623 98.260 C 268.406 98.437,268.283 98.637,268.351 98.705 C 268.418 98.773,269.536 97.735,270.835 96.399 C 274.916 92.201,275.491 91.615,283.937 83.074 C 288.479 78.482,292.091 74.715,291.964 74.703 C 291.838 74.690,291.663 74.692,291.577 74.707 C 291.490 74.723,291.466 74.582,291.524 74.396 C 291.581 74.209,291.769 73.497,291.942 72.814 C 292.115 72.131,292.316 71.529,292.389 71.476 C 292.545 71.363,293.361 67.736,293.360 67.160 C 293.359 66.941,293.423 66.698,293.502 66.619 C 293.581 66.540,293.649 66.418,293.652 66.348 C 293.656 66.278,293.769 66.022,293.904 65.780 C 294.038 65.538,294.116 65.243,294.076 65.125 C 294.037 65.007,293.685 65.493,293.293 66.205 M152.991 65.974 C 152.945 66.110,152.766 66.780,152.595 67.463 C 152.423 68.146,152.165 68.985,152.023 69.326 C 151.867 69.700,151.840 69.947,151.956 69.947 C 152.062 69.947,152.101 70.025,152.042 70.120 C 151.984 70.215,152.903 71.302,154.085 72.537 C 155.268 73.772,156.656 75.221,157.170 75.757 C 157.684 76.293,158.040 76.560,157.960 76.350 C 157.652 75.533,157.649 75.345,157.939 75.056 C 158.104 74.891,158.390 74.147,158.575 73.403 C 158.900 72.095,159.314 71.657,159.675 72.241 C 159.740 72.346,159.864 72.432,159.950 72.432 C 160.166 72.432,154.446 66.708,153.688 66.165 C 153.240 65.845,153.053 65.793,152.991 65.974 M106.641 71.017 C 106.641 71.079,106.789 71.380,106.969 71.686 C 107.322 72.283,107.664 72.446,107.462 71.921 C 107.333 71.584,106.641 70.822,106.641 71.017 M238.881 73.531 L 238.223 74.247 238.985 73.579 C 239.404 73.211,239.784 72.888,239.829 72.862 C 239.874 72.836,239.827 72.814,239.725 72.814 C 239.623 72.814,239.243 73.137,238.881 73.531 M132.059 99.092 C 132.416 99.460,132.751 99.761,132.803 99.761 C 132.856 99.761,132.607 99.460,132.250 99.092 C 131.894 98.724,131.559 98.423,131.506 98.423 C 131.454 98.423,131.703 98.724,132.059 99.092 M137.410 98.564 C 137.410 98.750,138.182 99.245,138.295 99.131 C 138.341 99.086,138.160 98.906,137.894 98.731 C 137.628 98.557,137.410 98.482,137.410 98.564 " stroke="none" fill="#045f8f" fill-rule="evenodd"></path><path id="path2" d="M258.961 1.453 C 258.960 1.569,258.163 2.024,257.191 2.465 C 256.218 2.905,254.950 3.561,254.372 3.922 L 253.321 4.578 254.026 4.582 C 254.414 4.585,254.778 4.662,254.835 4.754 C 254.892 4.847,255.328 5.020,255.804 5.140 C 257.279 5.511,258.688 6.232,260.207 7.391 C 261.009 8.003,262.274 8.956,263.017 9.508 L 264.367 10.511 266.616 10.511 C 267.853 10.511,269.001 10.563,269.167 10.627 C 269.337 10.692,269.470 10.645,269.470 10.520 C 269.470 10.398,269.384 10.351,269.279 10.416 C 269.173 10.481,269.087 10.443,269.087 10.331 C 269.087 10.220,268.937 10.128,268.753 10.126 C 268.514 10.124,268.487 10.080,268.658 9.971 C 268.828 9.863,268.579 9.488,267.798 8.678 C 267.193 8.050,266.178 6.980,265.542 6.301 C 264.288 4.960,263.178 3.980,262.351 3.483 C 262.062 3.309,261.825 3.101,261.825 3.020 C 261.825 2.940,261.245 2.604,260.535 2.273 C 259.826 1.942,259.182 1.575,259.105 1.457 C 259.005 1.304,258.963 1.303,258.961 1.453 M139.587 2.314 C 138.968 2.641,138.284 3.071,138.067 3.270 C 137.850 3.469,137.583 3.631,137.473 3.631 C 137.363 3.631,136.238 4.663,134.973 5.925 C 133.707 7.186,132.719 8.218,132.776 8.218 C 132.833 8.218,132.610 8.477,132.279 8.793 C 131.948 9.109,131.677 9.453,131.677 9.557 C 131.677 9.662,131.582 9.747,131.465 9.747 C 131.349 9.747,131.305 9.880,131.368 10.043 C 131.430 10.206,131.418 10.302,131.340 10.255 C 131.263 10.208,131.109 10.268,130.998 10.388 C 130.848 10.552,131.567 10.607,133.849 10.607 C 136.121 10.607,136.921 10.668,136.980 10.846 C 137.024 10.977,137.246 11.086,137.474 11.089 C 138.343 11.097,141.674 12.206,141.997 12.594 C 142.050 12.657,142.673 12.988,143.383 13.328 C 144.092 13.669,144.673 14.019,144.673 14.105 C 144.673 14.192,145.038 14.466,145.485 14.714 C 146.434 15.240,151.362 20.124,151.362 20.537 C 151.362 20.691,151.512 20.899,151.696 20.998 C 151.880 21.098,152.285 21.617,152.596 22.152 C 152.907 22.687,153.224 23.125,153.300 23.125 C 153.375 23.125,153.744 23.762,154.119 24.542 C 154.494 25.321,154.872 25.988,154.960 26.023 C 155.156 26.101,156.140 28.234,156.140 28.581 C 156.140 28.718,156.276 28.967,156.443 29.134 C 156.610 29.301,157.001 30.186,157.312 31.101 C 157.624 32.016,157.948 32.810,158.034 32.866 C 158.120 32.922,158.350 33.591,158.545 34.353 C 158.762 35.199,158.999 35.738,159.154 35.738 C 159.521 35.738,160.390 35.251,160.747 34.845 C 160.915 34.653,161.474 34.104,161.989 33.625 C 163.708 32.023,164.703 30.718,164.529 30.291 C 164.443 30.081,163.929 28.705,163.385 27.234 C 158.999 15.360,151.838 6.584,143.267 2.579 C 141.083 1.558,141.028 1.554,139.587 2.314 M237.380 25.815 C 237.127 26.414,235.911 29.779,235.743 30.343 C 235.599 30.828,235.902 31.252,237.753 33.158 C 240.711 36.206,241.129 36.422,241.444 35.068 C 241.542 34.648,241.681 34.262,241.753 34.209 C 241.875 34.120,242.523 32.271,242.523 32.012 C 242.523 31.947,242.437 31.947,242.332 32.011 C 242.157 32.119,242.067 31.816,242.089 31.201 C 242.093 31.071,242.031 31.006,241.949 31.056 C 241.868 31.106,241.486 30.783,241.102 30.337 C 240.718 29.892,240.063 29.155,239.647 28.700 C 239.232 28.246,238.892 27.751,238.892 27.601 C 238.892 27.452,238.802 27.329,238.692 27.329 C 238.582 27.329,238.286 26.884,238.034 26.341 C 237.593 25.389,237.568 25.369,237.380 25.815 M108.552 33.037 C 108.552 33.163,108.402 33.320,108.218 33.386 C 107.738 33.559,103.729 37.731,103.889 37.891 C 103.932 37.935,103.795 38.126,103.585 38.317 C 103.374 38.508,103.201 38.784,103.201 38.930 C 103.201 39.076,102.992 39.405,102.736 39.661 C 102.480 39.917,102.032 40.666,101.740 41.325 C 101.449 41.984,101.065 42.738,100.886 43.000 C 100.708 43.263,100.377 44.080,100.151 44.816 C 99.925 45.552,99.652 46.314,99.545 46.510 C 98.611 48.207,98.621 57.011,99.557 57.716 C 99.627 57.769,99.794 58.199,99.928 58.672 C 100.249 59.803,102.459 64.458,102.769 64.654 C 102.901 64.738,103.012 64.910,103.014 65.036 C 103.017 65.162,103.311 65.735,103.669 66.310 C 104.027 66.884,104.269 67.435,104.208 67.534 C 104.148 67.632,104.178 67.663,104.276 67.603 C 104.375 67.542,104.708 67.959,105.016 68.529 C 105.324 69.099,105.642 69.565,105.722 69.565 C 105.802 69.565,106.010 69.845,106.186 70.186 C 106.361 70.528,106.686 70.979,106.908 71.190 C 107.130 71.400,107.412 71.787,107.536 72.050 C 107.660 72.312,107.768 72.415,107.775 72.277 C 107.782 72.140,107.858 72.070,107.943 72.123 C 108.126 72.236,107.590 69.897,107.401 69.756 C 107.206 69.612,106.693 66.867,106.344 64.102 C 106.172 62.744,105.984 61.505,105.924 61.347 C 105.865 61.190,105.830 60.996,105.846 60.917 C 105.863 60.839,105.791 60.774,105.686 60.774 C 105.581 60.774,105.493 60.581,105.492 60.344 C 105.488 59.649,105.274 59.049,105.075 59.173 C 104.973 59.235,104.907 59.127,104.928 58.932 C 104.948 58.736,104.949 58.533,104.929 58.481 C 104.908 58.428,104.860 58.256,104.821 58.098 C 104.781 57.941,104.622 57.461,104.466 57.033 C 104.184 56.260,104.057 55.530,103.853 53.512 C 103.714 52.127,104.155 47.962,104.532 47.109 C 104.625 46.899,104.852 46.211,105.037 45.581 C 105.482 44.059,106.039 42.755,106.319 42.577 C 106.483 42.473,106.471 42.432,106.277 42.430 C 106.076 42.428,106.100 42.326,106.373 42.025 C 106.573 41.804,106.715 41.589,106.689 41.547 C 106.529 41.294,106.688 41.067,106.955 41.169 C 107.218 41.270,107.229 41.242,107.026 40.997 C 106.782 40.703,107.065 38.462,107.377 38.223 C 107.568 38.076,108.788 33.043,108.663 32.918 C 108.602 32.857,108.552 32.911,108.552 33.037 M292.138 35.681 C 292.186 36.073,292.302 36.440,292.395 36.498 C 292.603 36.626,293.671 41.846,293.853 43.622 C 293.925 44.331,294.051 44.912,294.131 44.912 C 294.212 44.912,294.318 45.320,294.367 45.819 C 294.416 46.319,294.518 46.985,294.594 47.301 C 294.669 47.616,294.754 48.064,294.782 48.296 C 294.810 48.528,294.975 48.934,295.148 49.199 C 295.321 49.463,295.494 49.918,295.533 50.210 C 295.571 50.502,295.654 50.870,295.718 51.027 C 296.441 52.820,296.360 59.778,295.605 60.726 C 295.500 60.858,295.467 60.965,295.531 60.965 C 295.596 60.965,295.397 61.653,295.090 62.494 C 294.783 63.335,294.574 64.023,294.625 64.023 C 294.676 64.023,294.594 64.259,294.442 64.548 C 294.107 65.186,293.678 66.174,293.659 66.348 C 293.652 66.418,293.581 66.540,293.502 66.619 C 293.423 66.698,293.359 66.941,293.360 67.160 C 293.361 67.736,292.545 71.363,292.389 71.476 C 292.316 71.529,292.115 72.131,291.942 72.814 C 291.769 73.497,291.585 74.195,291.533 74.365 C 291.316 75.070,292.191 74.549,293.598 73.135 C 294.412 72.316,295.080 71.586,295.080 71.513 C 295.081 71.440,295.361 71.080,295.702 70.712 C 296.042 70.344,296.442 69.808,296.591 69.521 C 296.739 69.233,297.012 68.836,297.197 68.637 C 297.382 68.438,297.809 67.727,298.146 67.057 C 298.484 66.387,298.814 65.796,298.882 65.743 C 300.529 64.459,301.942 55.463,301.074 51.792 C 300.912 51.108,300.762 50.451,300.740 50.330 C 300.718 50.209,300.613 49.994,300.506 49.852 C 300.400 49.710,300.026 48.820,299.676 47.874 C 299.326 46.928,298.976 46.111,298.899 46.058 C 298.821 46.006,298.478 45.361,298.137 44.625 C 297.795 43.889,297.453 43.244,297.378 43.192 C 297.303 43.139,297.006 42.624,296.718 42.047 C 296.431 41.470,296.130 40.954,296.051 40.900 C 295.971 40.847,295.534 40.158,295.079 39.369 C 294.624 38.581,294.158 37.875,294.044 37.800 C 293.930 37.725,293.837 37.576,293.837 37.470 C 293.837 37.364,293.468 36.885,293.017 36.406 C 292.566 35.927,292.245 35.458,292.303 35.363 C 292.362 35.269,292.328 35.141,292.229 35.080 C 292.123 35.014,292.086 35.262,292.138 35.681 M240.659 72.103 C 240.423 72.211,240.229 72.381,240.229 72.482 C 240.229 72.582,240.096 72.613,239.933 72.550 C 239.761 72.484,239.686 72.517,239.754 72.627 C 239.884 72.837,238.724 73.897,238.456 73.813 C 238.365 73.784,238.333 73.831,238.387 73.917 C 238.440 74.003,237.888 74.667,237.160 75.392 C 235.455 77.089,235.477 76.920,236.581 79.905 C 239.513 87.834,242.779 93.360,247.390 98.187 C 251.051 102.021,252.760 103.216,258.767 106.138 C 259.261 106.378,260.296 106.170,260.296 105.830 C 260.296 105.740,260.582 105.547,260.930 105.401 C 262.314 104.823,268.323 99.341,268.323 98.656 C 268.323 98.540,268.480 98.333,268.673 98.195 C 269.721 97.447,269.329 97.178,267.290 97.243 C 264.743 97.325,260.870 96.765,260.870 96.315 C 260.870 96.239,260.601 96.124,260.272 96.058 C 259.632 95.930,257.397 94.986,257.238 94.776 C 257.186 94.707,256.683 94.402,256.121 94.100 C 255.559 93.798,255.018 93.400,254.920 93.216 C 254.821 93.032,254.648 92.881,254.536 92.881 C 254.133 92.881,250.254 89.306,249.498 88.239 C 249.393 88.091,249.058 87.591,248.754 87.128 C 248.449 86.666,248.083 86.219,247.940 86.134 C 247.797 86.050,247.511 85.650,247.305 85.246 C 247.099 84.842,246.817 84.395,246.677 84.253 C 246.537 84.111,246.133 83.414,245.778 82.704 C 245.423 81.995,245.068 81.414,244.989 81.414 C 244.910 81.414,244.531 80.602,244.146 79.609 C 243.762 78.617,243.387 77.778,243.313 77.746 C 243.239 77.714,242.881 76.785,242.516 75.681 C 242.152 74.577,241.789 73.645,241.710 73.610 C 241.631 73.575,241.512 73.208,241.446 72.794 C 241.305 71.908,241.229 71.842,240.659 72.103 M158.575 73.403 C 158.390 74.147,158.110 74.884,157.954 75.041 C 157.425 75.569,157.759 76.266,159.320 77.888 C 159.831 78.419,160.420 79.095,160.631 79.391 C 160.841 79.686,161.112 80.032,161.232 80.160 C 161.353 80.287,161.717 80.889,162.041 81.497 C 162.594 82.534,162.642 82.575,162.803 82.152 C 162.898 81.904,163.239 81.013,163.561 80.172 C 163.882 79.331,164.203 78.406,164.273 78.116 C 164.343 77.826,164.473 77.543,164.562 77.488 C 164.989 77.224,159.933 72.049,159.250 72.050 C 158.989 72.051,158.833 72.363,158.575 73.403 M130.578 97.354 C 130.519 97.449,130.571 97.465,130.692 97.390 C 130.825 97.308,130.982 97.434,131.086 97.708 C 131.250 98.139,136.414 103.482,137.392 104.233 C 137.828 104.568,139.745 105.738,140.564 106.170 C 140.839 106.315,141.080 106.307,141.424 106.140 C 146.842 103.516,146.859 103.505,145.867 103.281 C 144.204 102.907,143.670 102.717,142.284 102.013 C 141.443 101.586,140.692 101.141,140.614 101.024 C 140.534 100.902,140.472 100.893,140.468 101.003 C 140.464 101.128,140.414 101.127,140.322 101.000 C 140.245 100.894,139.636 100.378,138.970 99.854 C 138.303 99.330,137.514 98.665,137.217 98.376 C 136.919 98.086,136.623 97.850,136.558 97.850 C 136.494 97.850,136.241 97.719,135.996 97.558 C 135.490 97.227,130.766 97.049,130.578 97.354 M366.648 167.797 C 366.648 180.358,366.671 185.497,366.698 179.216 C 366.726 172.936,366.726 162.659,366.698 156.378 C 366.671 150.098,366.648 155.237,366.648 167.797 M320.640 184.758 C 322.348 184.790,325.143 184.790,326.851 184.758 C 328.559 184.727,327.162 184.701,323.746 184.701 C 320.330 184.701,318.932 184.727,320.640 184.758 M380.172 184.759 C 383.825 184.788,389.802 184.788,393.454 184.759 C 397.107 184.730,394.118 184.706,386.813 184.706 C 379.508 184.706,376.519 184.730,380.172 184.759 " stroke="none" fill="#046b9e" fill-rule="evenodd"></path><path id="path3" d="M270.712 11.467 C 271.230 11.992,271.696 12.422,271.749 12.422 C 271.801 12.422,271.421 11.992,270.903 11.467 C 270.385 10.941,269.919 10.511,269.866 10.511 C 269.814 10.511,270.194 10.941,270.712 11.467 M266.412 13.282 C 266.768 13.650,267.103 13.951,267.156 13.951 C 267.208 13.951,266.960 13.650,266.603 13.282 C 266.246 12.914,265.912 12.613,265.859 12.613 C 265.807 12.613,266.055 12.914,266.412 13.282 M125.742 15.050 L 125.084 15.767 125.800 15.108 C 126.467 14.495,126.605 14.333,126.459 14.333 C 126.427 14.333,126.104 14.656,125.742 15.050 M121.257 26.039 L 119.732 27.616 121.309 26.091 C 122.176 25.253,122.886 24.543,122.886 24.515 C 122.886 24.375,122.673 24.575,121.257 26.039 M109.988 30.958 C 109.687 31.273,109.477 31.560,109.522 31.598 C 109.567 31.635,109.848 31.378,110.148 31.026 C 110.824 30.232,110.724 30.190,109.988 30.958 M247.874 37.172 C 248.445 37.750,248.955 38.223,249.007 38.223 C 249.060 38.223,248.636 37.750,248.065 37.172 C 247.494 36.593,246.984 36.120,246.931 36.120 C 246.879 36.120,247.303 36.593,247.874 37.172 M131.390 40.560 C 131.075 40.672,130.774 40.823,130.721 40.896 C 130.669 40.968,130.212 41.267,129.706 41.561 C 129.200 41.855,128.642 42.321,128.466 42.596 C 128.291 42.871,128.016 43.201,127.857 43.329 C 127.482 43.631,126.830 43.650,127.013 43.353 C 127.098 43.216,127.065 43.184,126.927 43.270 C 126.805 43.346,126.657 43.280,126.596 43.123 C 126.536 42.967,126.369 42.794,126.225 42.738 C 126.055 42.673,126.000 42.735,126.069 42.915 C 126.128 43.067,126.245 43.192,126.330 43.192 C 126.415 43.192,126.738 43.600,127.048 44.099 C 127.358 44.599,127.817 45.240,128.068 45.524 C 128.319 45.808,128.825 46.403,129.193 46.847 C 130.351 48.243,134.765 52.926,141.079 59.457 C 142.308 60.728,142.797 60.934,142.080 59.878 C 141.817 59.490,141.650 59.046,141.709 58.892 C 141.769 58.738,141.916 57.765,142.038 56.731 C 142.222 55.163,142.570 54.119,142.570 55.136 C 142.570 55.294,142.726 55.423,142.916 55.423 C 143.105 55.423,144.588 56.734,146.209 58.337 C 147.831 59.940,148.819 60.865,148.405 60.392 C 147.990 59.919,146.400 58.281,144.871 56.752 C 143.060 54.942,142.113 53.858,142.154 53.644 C 142.189 53.464,142.283 53.357,142.364 53.406 C 142.444 53.456,142.803 53.186,143.161 52.807 C 143.809 52.121,143.696 52.112,142.740 52.773 L 142.240 53.119 142.107 51.654 C 141.921 49.604,141.080 46.180,140.685 45.867 C 140.618 45.815,140.316 45.299,140.012 44.720 C 139.709 44.142,139.316 43.540,139.140 43.383 C 138.963 43.225,138.669 42.855,138.486 42.560 C 138.303 42.265,138.007 41.970,137.829 41.904 C 137.503 41.783,136.441 41.089,136.264 40.882 C 135.816 40.357,132.561 40.142,131.390 40.560 M152.401 43.430 L 151.839 44.052 152.461 43.490 C 152.802 43.182,153.082 42.902,153.082 42.869 C 153.082 42.722,152.924 42.852,152.401 43.430 M254.449 43.928 C 254.854 44.384,254.945 44.425,254.945 44.154 C 254.945 44.052,254.752 43.868,254.515 43.744 C 254.087 43.519,254.087 43.520,254.449 43.928 M255.560 45.007 C 256.955 46.570,257.825 47.446,257.904 47.367 C 257.952 47.319,257.329 46.639,256.520 45.857 C 255.710 45.074,255.278 44.692,255.560 45.007 M175.997 45.477 C 175.514 45.565,174.955 45.726,174.755 45.835 C 174.555 45.945,173.971 46.232,173.458 46.475 C 171.374 47.459,169.326 50.369,169.326 52.347 C 169.326 52.567,169.240 52.747,169.135 52.747 C 168.902 52.747,168.877 54.977,169.109 55.120 C 169.199 55.176,169.324 55.591,169.385 56.042 C 169.501 56.882,170.397 59.053,170.630 59.055 C 170.701 59.056,170.961 59.352,171.206 59.712 C 173.905 63.675,182.457 63.142,184.651 58.873 C 184.789 58.605,184.954 58.342,185.018 58.290 C 186.430 57.137,186.351 50.259,184.917 49.457 C 184.751 49.364,184.615 49.181,184.615 49.050 C 184.615 48.919,184.108 48.333,183.488 47.747 C 181.560 45.928,178.552 45.016,175.997 45.477 M198.853 45.416 C 196.957 45.695,193.215 47.970,193.215 48.844 C 193.215 48.983,193.081 49.172,192.917 49.264 C 191.813 49.882,191.286 54.483,192.041 56.910 C 193.625 62.000,200.259 64.156,204.880 61.083 C 205.612 60.596,206.212 60.134,206.212 60.056 C 206.213 59.978,206.461 59.649,206.765 59.325 C 208.863 57.087,209.121 51.813,207.262 49.180 C 206.534 48.148,204.965 46.763,204.109 46.396 C 203.636 46.193,202.991 45.912,202.676 45.771 C 202.051 45.492,199.771 45.281,198.853 45.416 M220.927 45.491 C 220.015 45.653,217.296 46.904,217.296 47.161 C 217.296 47.245,217.039 47.465,216.725 47.651 C 216.411 47.836,215.920 48.392,215.633 48.886 C 215.347 49.381,215.050 49.812,214.973 49.845 C 213.882 50.315,213.924 58.098,215.018 58.098 C 215.114 58.098,215.194 58.223,215.194 58.374 C 215.194 58.752,217.133 60.817,217.803 61.154 C 218.102 61.304,218.480 61.535,218.642 61.667 C 219.964 62.748,225.838 62.647,226.660 61.531 C 226.713 61.459,227.014 61.267,227.329 61.103 C 228.473 60.509,230.480 57.965,230.484 57.103 C 230.484 56.967,230.624 56.598,230.794 56.283 C 231.164 55.596,231.253 52.639,230.925 51.952 C 230.807 51.706,230.522 51.015,230.292 50.416 C 228.977 46.999,224.802 44.804,220.927 45.491 M258.124 47.896 C 258.195 48.094,258.331 48.357,258.426 48.480 C 258.530 48.615,258.522 48.997,258.405 49.436 C 258.299 49.838,258.153 50.834,258.081 51.648 C 258.009 52.463,257.892 53.129,257.822 53.129 C 257.639 53.129,255.953 51.660,254.971 50.645 L 254.139 49.785 254.822 50.645 C 255.197 51.118,256.067 52.053,256.754 52.722 C 258.168 54.100,258.176 54.119,257.532 54.541 C 256.755 55.050,256.564 55.580,257.199 55.462 C 257.483 55.409,257.770 55.284,257.835 55.184 C 257.901 55.083,258.014 55.591,258.086 56.311 C 258.272 58.144,258.902 60.745,259.245 61.088 C 259.403 61.245,259.532 61.501,259.532 61.656 C 259.532 62.076,260.319 63.476,260.918 64.122 C 261.207 64.433,261.443 64.781,261.443 64.895 C 261.443 65.164,262.262 65.934,262.547 65.934 C 262.668 65.934,262.853 66.094,262.958 66.290 C 263.908 68.065,269.012 67.786,271.127 65.843 C 271.530 65.474,271.923 65.171,272.002 65.171 C 272.081 65.170,272.145 65.051,272.145 64.906 C 272.145 64.515,272.757 64.048,272.862 64.359 C 272.906 64.491,273.015 64.554,273.104 64.499 C 273.193 64.444,273.616 64.887,274.043 65.484 C 274.471 66.081,274.821 66.499,274.821 66.412 C 274.821 66.115,273.627 64.394,273.226 64.113 C 273.005 63.958,272.884 63.832,272.957 63.832 C 273.088 63.832,272.243 62.498,271.990 62.307 C 271.918 62.252,271.565 61.829,271.206 61.367 C 270.316 60.221,269.047 58.835,266.205 55.901 C 264.881 54.534,262.817 52.384,261.617 51.123 C 258.972 48.341,257.943 47.391,258.124 47.896 M145.495 50.268 C 144.528 51.211,143.799 51.983,143.875 51.983 C 143.950 51.983,144.782 51.209,145.724 50.263 C 146.665 49.317,147.395 48.545,147.344 48.548 C 147.294 48.551,146.462 49.325,145.495 50.268 M256.054 56.006 C 255.876 56.110,255.537 56.472,255.300 56.812 C 254.898 57.390,254.922 57.381,255.672 56.665 C 256.631 55.751,256.702 55.628,256.054 56.006 M252.752 59.297 C 250.658 61.449,249.340 62.876,249.447 62.876 C 249.491 62.876,250.703 61.672,252.140 60.201 C 253.578 58.729,254.689 57.527,254.611 57.530 C 254.532 57.532,253.695 58.328,252.752 59.297 M144.485 62.948 C 145.524 64.152,147.053 65.659,146.447 64.883 C 146.119 64.462,145.437 63.731,144.931 63.258 C 144.424 62.785,144.224 62.646,144.485 62.948 M275.012 66.789 C 275.012 66.839,275.184 67.162,275.393 67.506 C 275.842 68.242,275.905 68.075,275.485 67.262 C 275.223 66.755,275.012 66.545,275.012 66.789 M157.095 75.872 C 157.535 76.398,157.938 76.828,157.991 76.828 C 158.043 76.828,157.726 76.398,157.286 75.872 C 156.846 75.346,156.443 74.916,156.391 74.916 C 156.338 74.916,156.655 75.346,157.095 75.872 M283.806 76.729 C 283.451 77.095,283.198 77.425,283.243 77.460 C 283.288 77.496,283.615 77.197,283.969 76.794 C 284.773 75.880,284.669 75.839,283.806 76.729 M119.637 86.670 C 120.208 87.248,120.718 87.721,120.771 87.721 C 120.823 87.721,120.399 87.248,119.828 86.670 C 119.257 86.092,118.747 85.619,118.694 85.619 C 118.642 85.619,119.066 86.092,119.637 86.670 M279.109 87.960 L 278.548 88.581 279.169 88.020 C 279.510 87.711,279.790 87.431,279.790 87.399 C 279.790 87.251,279.632 87.381,279.109 87.960 M131.295 98.483 C 131.295 98.516,131.574 98.796,131.916 99.104 L 132.537 99.666 131.976 99.044 C 131.452 98.465,131.295 98.335,131.295 98.483 M0.000 167.702 L 0.000 190.731 3.440 190.731 L 6.880 190.731 6.880 180.602 L 6.880 170.473 19.780 170.473 L 32.680 170.473 32.680 180.606 L 32.680 190.740 36.168 190.688 L 39.656 190.635 39.656 167.702 L 39.656 144.768 36.168 144.716 L 32.680 144.664 32.680 154.511 L 32.680 164.357 19.780 164.357 L 6.880 164.357 6.880 154.515 L 6.880 144.673 3.440 144.673 L 0.000 144.673 0.000 167.702 M54.849 167.702 L 54.849 190.731 71.763 190.731 L 88.677 190.731 88.677 187.975 C 88.677 186.460,88.624 185.084,88.561 184.918 C 88.456 184.646,87.099 184.615,75.183 184.615 L 61.921 184.615 61.921 177.449 L 61.921 170.282 73.387 170.282 L 84.854 170.282 84.854 167.415 L 84.854 164.548 73.387 164.548 L 61.921 164.548 61.921 157.668 L 61.921 150.788 74.821 150.788 L 87.721 150.788 87.721 147.731 L 87.721 144.673 71.285 144.673 L 54.849 144.673 54.849 167.702 M100.717 167.702 L 100.717 190.731 116.579 190.731 L 132.441 190.731 132.441 187.673 L 132.441 184.615 120.115 184.615 L 107.788 184.615 107.788 164.644 L 107.788 144.673 104.252 144.673 L 100.717 144.673 100.717 167.702 M141.615 167.702 L 141.615 190.731 145.055 190.731 L 148.495 190.731 148.495 167.702 L 148.495 144.673 145.055 144.673 L 141.615 144.673 141.615 167.702 M159.115 145.103 C 159.190 145.339,159.497 145.786,159.797 146.095 C 160.098 146.404,160.344 146.750,160.344 146.864 C 160.344 146.978,160.581 147.333,160.870 147.651 C 161.351 148.181,162.051 149.153,163.448 151.228 C 163.736 151.655,164.187 152.231,164.451 152.506 C 164.715 152.782,164.931 153.075,164.931 153.159 C 164.931 153.306,166.964 156.134,167.486 156.713 C 167.628 156.871,167.983 157.387,168.275 157.860 C 168.567 158.333,168.923 158.849,169.068 159.006 C 169.212 159.164,169.882 160.067,170.556 161.013 C 171.231 161.959,172.008 163.034,172.283 163.402 C 173.965 165.653,174.861 166.970,174.865 167.195 C 174.868 167.428,173.351 169.581,172.039 171.206 C 171.756 171.556,171.469 171.990,171.402 172.169 C 171.335 172.348,171.057 172.706,170.784 172.965 C 170.512 173.224,170.287 173.505,170.285 173.590 C 170.283 173.675,169.781 174.406,169.169 175.214 C 168.557 176.023,168.001 176.835,167.933 177.019 C 167.865 177.203,167.728 177.353,167.629 177.353 C 167.529 177.353,167.185 177.781,166.863 178.304 C 166.541 178.827,166.140 179.408,165.971 179.594 C 165.803 179.781,165.118 180.707,164.450 181.653 C 163.782 182.599,163.097 183.527,162.929 183.715 C 162.761 183.903,162.476 184.297,162.296 184.591 C 162.116 184.886,161.735 185.420,161.450 185.779 C 160.664 186.768,159.465 188.427,158.802 189.441 C 158.476 189.940,158.130 190.349,158.034 190.349 C 157.938 190.349,157.860 190.435,157.860 190.540 C 157.860 190.661,159.325 190.731,161.873 190.731 C 166.371 190.731,166.163 190.792,167.040 189.230 C 167.285 188.794,167.554 188.438,167.637 188.438 C 167.720 188.438,167.911 188.201,168.061 187.912 C 168.303 187.447,169.230 186.117,170.758 184.042 C 172.615 181.521,173.532 180.216,173.536 180.085 C 173.539 180.001,173.797 179.682,174.109 179.376 C 174.422 179.069,174.677 178.739,174.677 178.642 C 174.677 178.493,176.532 175.858,177.162 175.112 C 177.271 174.983,177.636 174.466,177.972 173.965 C 179.095 172.290,179.106 172.285,179.803 173.072 C 180.137 173.450,180.411 173.791,180.411 173.830 C 180.411 173.970,181.661 175.702,182.179 176.279 C 182.468 176.601,182.704 176.959,182.704 177.073 C 182.704 177.188,182.962 177.529,183.278 177.831 C 183.593 178.133,183.851 178.454,183.851 178.544 C 183.851 178.718,185.783 181.422,186.665 182.482 C 186.957 182.832,187.250 183.266,187.318 183.445 C 187.385 183.624,187.663 183.982,187.935 184.241 C 188.208 184.499,188.433 184.779,188.434 184.862 C 188.438 185.045,190.467 187.872,191.291 188.843 C 191.613 189.224,191.881 189.611,191.884 189.703 C 191.919 190.618,192.432 190.731,196.543 190.731 C 200.953 190.731,200.848 190.774,199.799 189.393 C 199.439 188.920,198.844 188.082,198.476 187.530 C 198.108 186.978,197.720 186.527,197.613 186.527 C 197.507 186.527,197.420 186.443,197.420 186.341 C 197.420 186.127,196.335 184.518,195.853 184.017 C 195.675 183.832,195.404 183.439,195.250 183.144 C 195.097 182.850,194.749 182.400,194.476 182.145 C 194.203 181.891,193.980 181.608,193.980 181.517 C 193.980 181.427,193.549 180.790,193.021 180.102 C 192.494 179.414,191.937 178.608,191.783 178.310 C 191.629 178.013,191.432 177.741,191.345 177.705 C 191.258 177.669,190.896 177.210,190.541 176.684 C 190.187 176.159,189.829 175.683,189.748 175.626 C 189.666 175.570,189.250 175.011,188.822 174.384 C 187.296 172.144,186.735 171.366,186.565 171.255 C 186.470 171.193,186.172 170.790,185.903 170.360 C 185.634 169.930,185.297 169.457,185.154 169.309 C 185.012 169.161,184.587 168.573,184.211 168.003 L 183.526 166.967 184.105 166.092 C 184.423 165.611,184.796 165.088,184.933 164.931 C 185.264 164.552,187.026 162.160,187.605 161.305 C 187.856 160.934,188.444 160.115,188.912 159.484 C 189.380 158.853,190.088 157.869,190.486 157.297 C 190.884 156.725,191.445 155.996,191.734 155.678 C 192.023 155.359,192.260 155.005,192.260 154.890 C 192.260 154.776,192.518 154.435,192.833 154.133 C 193.149 153.831,193.407 153.508,193.407 153.415 C 193.407 153.272,194.255 152.035,194.553 151.744 C 194.834 151.470,195.700 150.219,195.703 150.084 C 195.705 149.999,195.930 149.717,196.202 149.458 C 196.475 149.199,196.753 148.841,196.820 148.662 C 196.887 148.483,197.180 148.050,197.471 147.699 C 198.298 146.704,199.522 144.985,199.522 144.821 C 199.522 144.440,191.900 144.657,191.692 145.044 C 191.583 145.249,191.236 145.698,190.921 146.042 C 190.606 146.387,190.349 146.763,190.349 146.877 C 190.349 146.991,190.161 147.287,189.931 147.533 C 189.502 147.994,188.247 149.760,188.247 149.904 C 188.247 149.947,187.989 150.260,187.673 150.597 C 187.358 150.935,187.100 151.305,187.100 151.419 C 187.100 151.534,186.884 151.853,186.620 152.128 C 186.356 152.404,185.905 152.979,185.617 153.407 C 184.220 155.482,183.520 156.453,183.039 156.983 C 182.750 157.302,182.513 157.660,182.513 157.779 C 182.513 157.898,182.304 158.221,182.048 158.496 C 181.793 158.772,181.276 159.451,180.901 160.005 C 180.525 160.560,180.046 161.216,179.837 161.464 L 179.455 161.915 179.074 161.464 C 178.864 161.216,178.374 160.540,177.985 159.962 C 177.596 159.384,177.175 158.825,177.050 158.720 C 176.924 158.614,176.604 158.177,176.340 157.747 C 176.075 157.317,175.741 156.844,175.598 156.696 C 175.455 156.547,175.015 155.953,174.620 155.375 C 173.842 154.234,172.998 153.072,172.402 152.317 C 172.194 152.054,171.721 151.409,171.352 150.884 C 170.339 149.445,169.400 148.145,168.454 146.871 C 167.985 146.240,167.452 145.488,167.269 145.199 L 166.937 144.675 162.959 144.674 L 158.980 144.673 159.115 145.103 M244.326 154.276 L 243.765 154.897 244.386 154.336 C 244.965 153.813,245.095 153.655,244.947 153.655 C 244.914 153.655,244.635 153.935,244.326 154.276 " stroke="none" fill="#04345c" fill-rule="evenodd"></path><path id="path4" d="M273.642 20.592 C 273.850 20.882,274.258 21.333,274.551 21.596 C 274.854 21.868,274.725 21.641,274.253 21.070 C 273.364 19.996,273.024 19.730,273.642 20.592 M130.483 21.642 C 129.878 21.746,129.384 21.897,129.384 21.979 C 129.384 22.061,129.147 22.186,128.858 22.257 C 128.102 22.444,126.085 23.357,125.782 23.649 C 125.641 23.786,125.254 24.037,124.922 24.207 C 124.591 24.377,124.256 24.611,124.179 24.728 C 123.984 25.022,123.997 24.721,124.195 24.317 C 124.885 22.912,125.077 22.456,125.036 22.323 C 125.010 22.238,125.074 22.169,125.179 22.169 C 125.284 22.169,125.370 22.066,125.370 21.940 C 125.370 21.630,124.896 22.096,124.884 22.418 C 124.879 22.544,124.785 22.630,124.675 22.609 C 124.565 22.588,124.096 22.975,123.632 23.469 L 122.790 24.367 123.698 23.515 C 124.767 22.511,124.779 22.533,124.033 24.111 C 123.717 24.777,123.459 25.430,123.459 25.561 C 123.459 25.693,123.392 25.800,123.310 25.800 C 122.770 25.800,122.037 30.302,122.190 32.680 C 122.388 35.759,124.616 41.381,125.985 42.257 C 126.085 42.322,126.142 42.408,126.111 42.449 C 126.080 42.489,126.260 42.759,126.511 43.048 C 127.192 43.831,127.761 43.699,128.466 42.596 C 128.642 42.321,129.200 41.855,129.706 41.561 C 130.212 41.267,130.669 40.969,130.721 40.898 C 131.266 40.166,135.642 40.153,136.264 40.882 C 136.441 41.089,137.503 41.783,137.829 41.904 C 138.007 41.970,138.303 42.265,138.486 42.560 C 138.669 42.855,138.963 43.225,139.140 43.383 C 139.316 43.540,139.709 44.142,140.012 44.720 C 140.316 45.299,140.618 45.815,140.685 45.867 C 141.080 46.180,141.921 49.604,142.107 51.654 L 142.240 53.119 142.835 52.702 C 143.598 52.168,146.430 49.434,150.098 45.692 C 151.686 44.071,153.192 42.545,153.444 42.299 C 153.696 42.054,153.808 41.854,153.694 41.854 C 153.580 41.854,153.433 41.940,153.368 42.045 C 153.130 42.431,152.936 42.216,152.810 41.424 C 152.642 40.370,151.898 37.773,151.729 37.649 C 151.657 37.597,151.466 37.163,151.304 36.685 C 150.972 35.702,150.368 34.353,150.196 34.209 C 150.133 34.157,149.798 33.516,149.452 32.786 C 149.105 32.055,148.668 31.293,148.481 31.092 C 148.293 30.891,148.016 30.471,147.865 30.160 C 147.241 28.872,143.357 24.878,142.144 24.278 C 141.856 24.135,141.469 23.880,141.284 23.711 C 140.859 23.323,138.800 22.399,138.008 22.241 C 137.679 22.175,137.410 22.055,137.410 21.974 C 137.410 21.488,132.697 21.263,130.483 21.642 M275.948 23.029 C 276.429 23.718,278.747 26.209,278.528 25.800 C 278.318 25.411,278.244 25.325,276.805 23.794 C 276.114 23.058,275.728 22.714,275.948 23.029 M120.488 26.613 L 119.732 27.425 120.545 26.669 C 121.300 25.967,121.445 25.800,121.300 25.800 C 121.269 25.800,120.903 26.166,120.488 26.613 M279.157 26.660 C 279.380 26.976,279.801 27.449,280.095 27.711 C 280.610 28.172,280.607 28.162,280.025 27.406 C 279.263 26.417,278.561 25.814,279.157 26.660 M117.827 29.311 C 115.973 31.226,115.589 31.795,117.257 30.155 C 118.188 29.240,118.912 28.455,118.864 28.411 C 118.816 28.367,118.350 28.772,117.827 29.311 M280.772 28.639 C 280.894 28.833,281.167 29.101,281.380 29.234 C 281.715 29.443,281.705 29.398,281.304 28.891 C 280.798 28.251,280.418 28.071,280.772 28.639 M282.041 30.116 C 282.158 30.335,282.401 30.636,282.582 30.785 C 282.881 31.031,282.891 31.020,282.698 30.658 C 282.582 30.439,282.338 30.138,282.158 29.989 C 281.859 29.743,281.849 29.754,282.041 30.116 M244.529 33.827 C 244.940 34.247,245.319 34.591,245.371 34.591 C 245.424 34.591,245.131 34.247,244.720 33.827 C 244.310 33.407,243.931 33.063,243.878 33.063 C 243.826 33.063,244.119 33.407,244.529 33.827 M248.254 37.697 C 248.386 37.881,248.419 38.033,248.327 38.034 C 248.236 38.036,248.290 38.121,248.447 38.223 C 248.638 38.346,248.654 38.409,248.495 38.411 C 248.364 38.412,248.256 38.543,248.256 38.700 C 248.256 38.858,248.183 38.987,248.094 38.987 C 247.944 38.987,247.237 41.620,247.237 42.178 C 247.237 42.482,247.016 42.325,245.582 41.005 C 244.602 40.104,244.583 40.094,245.295 40.869 C 248.468 44.321,257.467 53.129,257.822 53.129 C 257.892 53.129,258.009 52.463,258.081 51.648 C 258.153 50.834,258.294 49.858,258.394 49.479 C 258.719 48.249,258.426 47.883,251.622 41.009 C 249.637 39.004,248.121 37.513,248.254 37.697 M142.038 56.731 C 141.916 57.765,141.769 58.738,141.709 58.892 C 141.650 59.046,141.817 59.490,142.080 59.878 C 142.344 60.266,142.506 60.583,142.441 60.583 C 142.376 60.583,143.217 61.507,144.310 62.637 C 147.017 65.436,152.876 71.306,152.354 70.698 C 152.121 70.427,151.990 70.148,152.061 70.077 C 152.132 70.006,152.094 69.947,151.977 69.947 C 151.829 69.947,151.843 69.756,152.023 69.326 C 152.165 68.985,152.423 68.146,152.595 67.463 C 153.065 65.592,153.036 65.645,153.420 65.975 C 153.826 66.322,154.228 66.558,154.228 66.448 C 154.228 66.168,143.207 55.423,142.919 55.423 C 142.727 55.423,142.570 55.294,142.570 55.136 C 142.570 54.119,142.222 55.163,142.038 56.731 M257.836 55.184 C 257.823 55.315,257.605 55.423,257.353 55.423 C 256.878 55.423,246.030 66.065,246.265 66.300 C 246.325 66.360,246.457 66.259,246.560 66.076 C 246.929 65.416,247.211 65.753,247.549 67.259 C 247.736 68.092,247.953 68.802,248.031 68.835 C 248.109 68.869,248.460 69.783,248.813 70.867 C 249.165 71.951,249.567 72.951,249.705 73.089 C 249.844 73.228,250.231 73.953,250.565 74.702 C 250.900 75.451,251.230 76.063,251.299 76.063 C 251.368 76.063,251.675 76.543,251.982 77.128 C 252.288 77.714,252.693 78.276,252.882 78.377 C 253.071 78.478,253.225 78.689,253.225 78.845 C 253.225 79.189,257.319 83.324,257.664 83.329 C 257.798 83.330,258.094 83.524,258.323 83.759 C 258.552 83.993,259.240 84.397,259.852 84.656 C 260.464 84.915,261.068 85.227,261.195 85.350 C 262.454 86.573,271.179 86.557,272.407 85.330 C 272.529 85.208,273.230 84.823,273.964 84.475 C 274.698 84.127,275.369 83.722,275.456 83.575 C 275.543 83.429,275.761 83.355,275.942 83.413 C 277.317 83.849,278.485 76.332,277.617 72.631 C 277.061 70.261,273.672 64.148,273.108 64.496 C 273.017 64.553,272.906 64.491,272.862 64.359 C 272.757 64.048,272.145 64.515,272.145 64.906 C 272.145 65.051,272.081 65.170,272.002 65.171 C 271.923 65.171,271.530 65.474,271.127 65.843 C 269.012 67.786,263.908 68.065,262.958 66.290 C 262.853 66.094,262.656 65.934,262.521 65.934 C 262.242 65.934,261.443 65.145,261.443 64.869 C 261.443 64.769,261.207 64.433,260.918 64.122 C 260.317 63.474,259.645 62.261,259.460 61.491 C 259.390 61.202,259.258 60.965,259.166 60.965 C 258.952 60.965,258.420 58.792,258.105 56.631 C 257.971 55.704,257.849 55.053,257.836 55.184 M291.065 75.776 C 290.601 76.249,290.264 76.636,290.317 76.636 C 290.370 76.636,290.792 76.249,291.257 75.776 C 291.721 75.303,292.058 74.916,292.005 74.916 C 291.952 74.916,291.530 75.303,291.065 75.776 M116.801 76.552 C 117.255 77.249,118.566 78.739,118.726 78.739 C 118.812 78.739,118.634 78.459,118.330 78.118 C 117.116 76.750,116.558 76.178,116.801 76.552 M282.274 78.452 C 282.027 78.715,281.905 78.927,282.002 78.924 C 282.165 78.918,282.953 77.974,282.794 77.974 C 282.755 77.974,282.521 78.189,282.274 78.452 M119.100 79.280 C 119.572 79.942,120.311 80.762,120.591 80.936 C 120.746 81.031,120.449 80.619,119.932 80.020 C 119.003 78.944,118.615 78.599,119.100 79.280 M280.745 79.981 C 280.498 80.244,280.366 80.459,280.451 80.459 C 280.536 80.459,280.805 80.244,281.049 79.981 C 281.292 79.718,281.425 79.503,281.343 79.503 C 281.261 79.503,280.992 79.718,280.745 79.981 M279.249 81.475 C 278.666 82.096,278.730 82.266,279.324 81.672 C 279.593 81.403,279.779 81.149,279.738 81.108 C 279.697 81.067,279.477 81.232,279.249 81.475 M122.266 82.879 C 122.398 82.932,122.468 83.037,122.422 83.112 C 122.375 83.187,122.508 83.355,122.716 83.486 C 123.084 83.715,123.086 83.708,122.778 83.237 C 122.603 82.970,122.362 82.759,122.243 82.767 C 122.105 82.777,122.114 82.818,122.266 82.879 M277.591 83.135 C 277.400 83.346,277.289 83.564,277.344 83.619 C 277.399 83.674,277.587 83.502,277.762 83.236 C 278.142 82.654,278.067 82.610,277.591 83.135 M275.754 83.717 C 275.741 83.870,275.741 84.059,275.754 84.138 C 275.766 84.216,275.690 84.281,275.585 84.281 C 275.480 84.281,275.408 84.345,275.425 84.424 C 275.456 84.570,275.177 85.309,274.806 86.062 C 274.693 86.291,275.037 86.026,275.570 85.473 C 276.522 84.486,276.912 83.886,276.159 84.568 C 275.733 84.953,275.670 84.837,275.985 84.248 C 276.136 83.966,276.136 83.800,275.985 83.649 C 275.834 83.498,275.770 83.517,275.754 83.717 M124.729 85.677 C 124.912 85.920,125.282 86.277,125.551 86.471 C 125.839 86.679,125.729 86.498,125.284 86.030 C 124.444 85.148,124.225 85.008,124.729 85.677 M276.245 90.827 L 275.490 91.639 276.302 90.883 C 276.749 90.468,277.114 90.102,277.114 90.071 C 277.114 89.927,276.948 90.071,276.245 90.827 " stroke="none" fill="#045180" fill-rule="evenodd"></path></g></svg>