<?xml version="1.0" standalone="no"?>
<!DOCTYPE svg PUBLIC "-//W3C//DTD SVG 20010904//EN"
 "http://www.w3.org/TR/2001/REC-SVG-20010904/DTD/svg10.dtd">
<svg version="1.0" xmlns="http://www.w3.org/2000/svg"
 width="640.000000pt" height="390.000000pt" viewBox="0 0 640.000000 390.000000"
 preserveAspectRatio="xMidYMid meet">

<g transform="translate(0.000000,390.000000) scale(0.100000,-0.100000)"
fill="#000000" stroke="none">
<path d="M5436 2417 c-20 -50 -36 -96 -36 -102 0 -5 18 -18 40 -28 51 -24 113
-87 142 -145 33 -67 33 -198 0 -260 -70 -132 -214 -204 -342 -172 -25 6 -51
12 -58 13 -9 1 -28 -34 -52 -95 l-37 -97 26 -10 c124 -48 294 -40 414 20 121
61 219 172 265 302 34 96 35 242 3 331 -53 149 -159 264 -293 320 l-37 16 -35
-93z"/>
<path d="M983 2443 c-32 -6 -72 -51 -78 -87 -3 -17 -4 -202 -3 -410 l3 -379
121 189 c106 166 118 190 102 196 -17 7 -18 19 -16 140 l3 133 107 3 106 3 62
95 c34 52 60 98 57 100 -18 19 -387 32 -464 17z"/>
<path d="M1784 2411 c-12 -5 -31 -22 -43 -37 -22 -28 -22 -31 -19 -363 l3
-336 32 -67 c41 -86 109 -155 198 -199 66 -32 75 -34 175 -34 102 0 109 1 182
38 52 25 91 53 122 88 44 49 96 143 96 173 0 8 5 18 10 21 6 4 10 -38 10 -118
0 -141 10 -166 77 -188 58 -19 321 -6 404 20 169 53 301 195 343 369 14 55 14
52 15 -126 1 -196 9 -235 52 -266 38 -26 93 -21 131 13 l33 29 3 451 c3 502 4
496 -64 528 -31 15 -39 16 -77 3 -69 -24 -77 -50 -78 -275 -1 -104 -4 -179 -6
-165 -25 151 -129 298 -259 367 -98 52 -157 63 -347 63 l-170 0 -33 -36 c-20
-20 -34 -29 -34 -21 0 23 -50 66 -85 73 -21 4 -44 0 -63 -10 -62 -32 -62 -32
-62 -351 0 -171 -4 -305 -11 -328 -12 -43 -59 -102 -98 -121 -77 -39 -163 -24
-226 39 -61 60 -65 88 -65 419 l0 286 -27 30 c-30 33 -82 46 -119 31z m1235
-256 c175 -96 213 -314 79 -460 -67 -73 -124 -96 -246 -98 l-95 -2 2 290 c0
160 1 294 1 299 0 4 46 6 103 4 90 -3 108 -7 156 -33z"/>
<path d="M4033 2406 c-265 -61 -446 -326 -405 -593 56 -357 444 -550 766 -380
120 62 242 220 261 335 11 66 17 68 31 8 19 -80 76 -185 134 -245 48 -50 133
-111 155 -111 6 0 28 44 48 97 35 90 36 98 20 106 -10 6 -39 31 -64 57 -121
123 -117 315 8 437 61 58 137 86 229 81 l70 -3 36 95 c20 52 33 99 28 103 -4
5 -40 13 -81 19 -192 29 -404 -68 -510 -233 -40 -63 -79 -168 -79 -214 0 -19
-2 -35 -4 -35 -2 0 -20 16 -39 35 l-35 35 -242 0 c-208 0 -246 -2 -270 -17
-58 -34 -68 -116 -21 -164 l29 -29 161 0 c92 0 162 -4 166 -10 18 -29 -83
-137 -160 -171 -36 -16 -70 -22 -121 -22 -92 0 -164 33 -228 104 -168 187 -47
489 204 507 82 5 134 -9 202 -54 70 -48 102 -57 143 -40 59 25 82 89 53 151
-16 35 -130 110 -206 135 -83 27 -199 34 -279 16z"/>
<path d="M1404 2292 c-71 -108 -72 -112 -42 -112 37 0 90 -34 110 -71 23 -44
23 -86 -2 -126 -35 -57 -61 -67 -194 -73 l-120 -5 -129 -202 c-122 -191 -129
-205 -122 -239 16 -89 115 -125 176 -65 28 28 29 33 29 119 0 49 2 91 5 94 3
3 106 -50 228 -118 136 -76 233 -124 250 -124 89 0 139 100 83 167 -13 15 -76
57 -140 93 -64 36 -116 67 -116 70 0 3 22 13 48 22 213 76 296 325 173 520
-31 48 -105 110 -153 127 -27 9 -29 7 -84 -77z"/>
<path d="M4790 1244 c-6 -14 -20 -48 -31 -75 -15 -35 -19 -53 -11 -61 7 -7 14
-4 21 11 16 28 66 29 81 1 14 -26 33 -15 24 13 l-6 22 23 -21 c13 -12 34 -25
45 -28 26 -8 74 12 74 31 0 16 -14 17 -41 2 -16 -8 -26 -7 -45 6 -29 19 -31
55 -4 80 18 17 32 17 73 0 28 -12 21 24 -7 36 -51 24 -115 -18 -117 -75 -1
-28 -3 -26 -26 27 -15 31 -30 57 -35 57 -5 0 -13 -12 -18 -26z m30 -59 c0 -8
-4 -15 -10 -15 -5 0 -10 7 -10 15 0 8 5 15 10 15 6 0 10 -7 10 -15z"/>
<path d="M5064 1233 c-43 -103 -47 -114 -36 -125 7 -7 14 -4 21 11 15 27 66
29 80 2 16 -29 111 -24 145 8 l24 23 4 -24 c3 -22 7 -23 73 -23 l70 0 5 50 c5
48 6 49 20 28 17 -27 33 -29 50 -8 21 26 30 17 30 -30 0 -25 5 -45 10 -45 6 0
10 35 10 85 0 49 -4 85 -10 85 -5 0 -20 -16 -32 -35 -13 -19 -26 -35 -29 -35
-4 0 -17 16 -30 35 -14 20 -30 33 -37 30 -8 -3 -40 -5 -73 -5 -56 0 -59 -1
-59 -25 l0 -24 -25 24 c-18 18 -35 25 -65 25 l-40 0 0 -71 c0 -38 -4 -68 -8
-65 -5 3 -21 37 -36 75 -15 39 -32 71 -37 71 -5 0 -16 -17 -25 -37z m356 -16
c0 -20 -4 -22 -45 -19 -60 5 -61 29 -2 35 23 2 43 4 45 5 1 1 2 -8 2 -21z
m-162 1 c20 -20 14 -56 -13 -74 -38 -25 -55 -12 -55 41 0 43 1 45 28 45 15 0
33 -5 40 -12z m-158 -33 c0 -8 -4 -15 -9 -15 -13 0 -22 16 -14 24 11 11 23 6
23 -9z m320 -31 c0 -23 -3 -25 -42 -22 -31 2 -44 8 -46 20 -3 13 6 18 40 21
24 2 44 4 46 5 1 1 2 -10 2 -24z"/>
<path d="M5586 1261 c-3 -5 8 -26 24 -46 22 -27 30 -49 30 -76 0 -40 13 -52
24 -23 3 9 6 28 6 44 0 16 11 42 26 59 35 42 21 61 -18 24 l-30 -28 -22 28
c-23 29 -31 32 -40 18z"/>
</g>
</svg>
